<?xml version="1.0" encoding="UTF-8"?>
<svg
  xmlns="http://www.w3.org/2000/svg"
  viewBox="0 0 600 900"
  width="600"
  height="900">

  <style>
    path {
      fill: #e0e0e0;
      stroke: #333;
      stroke-width: 2;
      cursor: pointer;
      transition: fill 0.3s ease;
    }
  </style>

  <!-- =========================
       BRAIN — Technology
       ========================= -->
  <path
    name="technology"
    d="M260,80
       C210,60 160,100 170,150
       C150,190 200,240 260,220
       C300,240 350,200 330,150
       C340,100 300,60 260,80 Z"/>

  <!-- =========================
       LUNGS — Industrials
       ========================= -->
  <path
    name="industrials"
    d="M170,260
       C120,280 110,380 150,430
       C180,470 230,450 230,400
       L230,280
       C230,260 200,250 170,260 Z"/>

  <path
    name="industrials"
    d="M350,260
       C400,280 410,380 370,430
       C340,470 290,450 290,400
       L290,280
       C290,260 320,250 350,260 Z"/>

  <!-- =========================
       HEART — Finance
       ========================= -->
  <path
    name="finance"
    d="M260,330
       C240,300 200,310 200,350
       C200,410 260,450 260,450
       C260,450 320,410 320,350
       C320,310 280,300 260,330 Z"/>

  <!-- =========================
       LIVER — Energy
       ========================= -->
  <path
    name="energy"
    d="M200,480
       C140,480 120,540 160,580
       C210,620 360,600 420,560
       C460,530 440,490 390,480
       Z"/>

  <!-- =========================
       KIDNEYS — Health Care
       ========================= -->
  <path
    name="health_care"
    d="M170,620
       C140,640 140,700 170,730
       C200,760 230,720 220,680
       C210,640 190,610 170,620 Z"/>

  <path
    name="health_care"
    d="M350,620
       C380,640 380,700 350,730
       C320,760 290,720 300,680
       C310,640 330,610 350,620 Z"/>

  <!-- =========================
       LARGE INTESTINE — Basic Materials
       ========================= -->
  <path
    name="basic_materials"
    d="M170,760
       C150,760 140,820 180,840
       C230,870 360,870 410,840
       C450,820 440,760 410,760
       Z"/>

  <!-- =========================
       SPLEEN / LOWER BODY — Real Estate
       ========================= -->
  <path
    name="real_estate"
    d="M230,840
       C220,880 240,920 300,920
       C360,920 380,880 370,840
       Z"/>

</svg>
